<mxfile host="app.diagrams.net" modified="2023-10-31T21:34:00.275Z" agent="Mozilla/5.0 (Macintosh; Intel Mac OS X 10_15_7) AppleWebKit/537.36 (KHTML, like Gecko) Chrome/118.0.0.0 Safari/537.36" etag="QSG2cPWE__xXB5X3Q46L" version="22.0.8" type="github">
  <diagram name="Page-1" id="WgAlQqyZzCUHRBC_JyW_">
    <mxGraphModel dx="1140" dy="636" grid="1" gridSize="10" guides="1" tooltips="1" connect="1" arrows="1" fold="1" page="1" pageScale="1" pageWidth="850" pageHeight="1100" math="0" shadow="0">
      <root>
        <mxCell id="0" />
        <mxCell id="1" parent="0" />
        <mxCell id="RyrGZW9c7uoxQgayMa2L-21" value="" style="rounded=0;whiteSpace=wrap;html=1;labelBackgroundColor=default;verticalAlign=bottom;" vertex="1" parent="1">
          <mxGeometry x="210" y="270" width="450" height="340" as="geometry" />
        </mxCell>
        <mxCell id="RyrGZW9c7uoxQgayMa2L-3" value="Server" style="text;strokeColor=none;fillColor=none;html=1;fontSize=24;fontStyle=1;verticalAlign=middle;align=center;" vertex="1" parent="1">
          <mxGeometry x="350" y="210" width="100" height="40" as="geometry" />
        </mxCell>
        <mxCell id="RyrGZW9c7uoxQgayMa2L-8" value="Actor" style="shape=umlActor;verticalLabelPosition=bottom;verticalAlign=top;html=1;outlineConnect=0;" vertex="1" parent="1">
          <mxGeometry x="50" y="330" width="30" height="60" as="geometry" />
        </mxCell>
        <mxCell id="RyrGZW9c7uoxQgayMa2L-9" value="Actor" style="shape=umlActor;verticalLabelPosition=bottom;verticalAlign=top;html=1;outlineConnect=0;" vertex="1" parent="1">
          <mxGeometry x="780" y="330" width="30" height="60" as="geometry" />
        </mxCell>
        <mxCell id="RyrGZW9c7uoxQgayMa2L-10" value="" style="shape=cylinder3;whiteSpace=wrap;html=1;boundedLbl=1;backgroundOutline=1;size=15;" vertex="1" parent="1">
          <mxGeometry x="310" y="330" width="60" height="80" as="geometry" />
        </mxCell>
        <mxCell id="RyrGZW9c7uoxQgayMa2L-11" value="SQL DB" style="text;strokeColor=none;fillColor=none;html=1;fontSize=24;fontStyle=1;verticalAlign=middle;align=center;" vertex="1" parent="1">
          <mxGeometry x="280" y="430" width="100" height="60" as="geometry" />
        </mxCell>
        <mxCell id="RyrGZW9c7uoxQgayMa2L-12" value="" style="shape=cylinder3;whiteSpace=wrap;html=1;boundedLbl=1;backgroundOutline=1;size=15;" vertex="1" parent="1">
          <mxGeometry x="490" y="330" width="60" height="80" as="geometry" />
        </mxCell>
        <mxCell id="RyrGZW9c7uoxQgayMa2L-16" value="SMTP Server&lt;br&gt;" style="text;strokeColor=none;fillColor=none;html=1;fontSize=24;fontStyle=1;verticalAlign=middle;align=center;" vertex="1" parent="1">
          <mxGeometry x="490" y="450" width="100" height="40" as="geometry" />
        </mxCell>
        <mxCell id="RyrGZW9c7uoxQgayMa2L-19" value="Sender" style="text;strokeColor=none;fillColor=none;html=1;fontSize=24;fontStyle=1;verticalAlign=middle;align=center;" vertex="1" parent="1">
          <mxGeometry x="20" y="430" width="100" height="40" as="geometry" />
        </mxCell>
        <mxCell id="RyrGZW9c7uoxQgayMa2L-20" value="Recepient" style="text;strokeColor=none;fillColor=none;html=1;fontSize=24;fontStyle=1;verticalAlign=middle;align=center;" vertex="1" parent="1">
          <mxGeometry x="740" y="430" width="100" height="40" as="geometry" />
        </mxCell>
        <mxCell id="RyrGZW9c7uoxQgayMa2L-23" value="" style="endArrow=classic;html=1;rounded=0;" edge="1" parent="1">
          <mxGeometry relative="1" as="geometry">
            <mxPoint x="310" y="440" as="sourcePoint" />
            <mxPoint x="470" y="440" as="targetPoint" />
          </mxGeometry>
        </mxCell>
        <mxCell id="RyrGZW9c7uoxQgayMa2L-24" value="Label" style="edgeLabel;resizable=0;html=1;align=center;verticalAlign=middle;" connectable="0" vertex="1" parent="RyrGZW9c7uoxQgayMa2L-23">
          <mxGeometry relative="1" as="geometry" />
        </mxCell>
        <mxCell id="RyrGZW9c7uoxQgayMa2L-25" value="Source" style="edgeLabel;resizable=0;html=1;align=left;verticalAlign=bottom;" connectable="0" vertex="1" parent="RyrGZW9c7uoxQgayMa2L-23">
          <mxGeometry x="-1" relative="1" as="geometry" />
        </mxCell>
        <mxCell id="RyrGZW9c7uoxQgayMa2L-26" value="Target" style="edgeLabel;resizable=0;html=1;align=right;verticalAlign=bottom;" connectable="0" vertex="1" parent="RyrGZW9c7uoxQgayMa2L-23">
          <mxGeometry x="1" relative="1" as="geometry" />
        </mxCell>
        <mxCell id="RyrGZW9c7uoxQgayMa2L-27" value="" style="endArrow=classic;startArrow=classic;html=1;rounded=0;" edge="1" parent="1" source="RyrGZW9c7uoxQgayMa2L-10" target="RyrGZW9c7uoxQgayMa2L-12">
          <mxGeometry width="50" height="50" relative="1" as="geometry">
            <mxPoint x="360" y="460" as="sourcePoint" />
            <mxPoint x="410" y="410" as="targetPoint" />
          </mxGeometry>
        </mxCell>
      </root>
    </mxGraphModel>
  </diagram>
</mxfile>
